<?xml version="1.0" encoding="UTF-8"?><svg id="Layer_1" xmlns="http://www.w3.org/2000/svg" viewBox="0 0 92.68 176.55"><defs><style>.cls-1{fill:#231f20;}.cls-2{fill:#1d1d1f;}</style></defs><g><path class="cls-1" d="M86.74,176.55c-3.67,0-5.95-2.34-5.95-6s2.29-5.97,5.95-5.97,5.94,2.32,5.94,5.97-2.29,6-5.94,6Zm0-10.79c-3.04,0-4.93,1.87-4.93,4.79s1.89,4.82,4.93,4.82,4.91-1.87,4.91-4.82-1.89-4.79-4.91-4.79Zm0,8.04c-2.1,0-3.6-1.18-3.6-3.27,0-1.81,1.17-2.93,2.58-3.09v1.12c-.38,.06-1.46,.43-1.46,1.92,0,1.68,1.2,2.13,2.48,2.13s2.46-.45,2.46-2.13c0-1.49-1.02-1.86-1.47-1.92v-1.12c1.42,.1,2.59,1.18,2.59,2.96,0,2.15-1.47,3.39-3.59,3.39Z"/><path class="cls-1" d="M85.27,159.32c-2.29,0-4.1-1.25-4.1-3.99,0-1.89,1.2-3.52,3.31-3.52s3.15,1.73,4.1,3.35c.72,1.25,1.41,2.43,2.56,2.74h.03v-5.92h1.28v7.67c-2,0-3.57-1.26-4.75-3.3-1.2-2.06-1.58-3.03-3.2-3.03-.93,0-2.05,.35-2.05,2.05,0,1.94,1.3,2.45,2.82,2.45v1.5Z"/><path class="cls-1" d="M86.93,150.53c-3.14,0-5.76-1.23-5.76-4.26s2.62-4.26,5.76-4.26,5.75,1.23,5.75,4.26-2.61,4.26-5.75,4.26Zm0-7.01c-2.35,0-4.48,.64-4.48,2.75s2.13,2.75,4.48,2.75,4.47-.64,4.47-2.75-2.11-2.75-4.47-2.75Z"/><path class="cls-1" d="M85.27,140.58c-2.29,0-4.1-1.25-4.1-3.99,0-1.89,1.2-3.52,3.31-3.52s3.15,1.73,4.1,3.35c.72,1.25,1.41,2.43,2.56,2.74h.03v-5.92h1.28v7.67c-2,0-3.57-1.26-4.75-3.3-1.2-2.06-1.58-3.03-3.2-3.03-.93,0-2.05,.35-2.05,2.05,0,1.94,1.3,2.45,2.82,2.45v1.5Z"/><path class="cls-1" d="M84.71,131.6c-2.03,0-3.54-1.33-3.54-4.07,0-1.89,1.1-3.55,3.06-3.55,1.17,0,1.9,.58,2.35,1.7h.03c.46-1.49,1.44-2.1,2.74-2.1,2.11,0,3.33,1.55,3.33,3.92,0,2.82-1.47,4.39-3.97,4.39v-1.5c1.6,0,2.69-.67,2.69-2.77,0-1.9-.78-2.53-2.05-2.53-1.66,0-2.03,1.2-2.03,2.27v1.18h-1.28v-1.12c0-1.14-.53-1.94-1.81-1.94-.9,0-1.78,.54-1.78,2.05,0,2.16,1.17,2.56,2.26,2.56v1.5Z"/></g><path class="cls-2" d="M17.26,168.51c0,3.87-1.98,5.33-4.55,5.59v2.44c4.16-.26,6.6-3.48,6.6-8.14s-2.44-6.63-5.51-6.63c-3.95,0-4.78,3.3-5.64,6.92-.57,2.39-1.04,4.63-3.35,4.63-1.77,0-2.76-1.27-2.76-3.87,0-2.99,1.33-4.29,3.82-4.63v-2.44c-3.74,.31-5.88,2.89-5.88,7.1s1.95,6.29,4.91,6.29c3.59,0,4.45-3.3,5.15-6.11,.91-3.61,1.22-5.43,3.82-5.43,1.9,0,3.38,.94,3.38,4.29Z"/><polygon class="cls-2" points="18.95 155.28 18.95 152.94 2.44 152.94 2.44 146.75 .36 146.75 .36 161.47 2.44 161.47 2.44 155.28 18.95 155.28"/><path class="cls-2" d="M19.32,137.81c0-4.97-2.76-7.12-6.55-7.12H.36v2.34H12.77c3.02,0,4.47,1.56,4.47,4.78s-1.46,4.78-4.47,4.78H.36v2.34H12.77c3.8,0,6.55-2.16,6.55-7.12Z"/><path class="cls-2" d="M9.67,112.43c-5.98,0-9.31,3.15-9.31,8.27v6.73H18.95v-6.73c0-5.12-3.3-8.27-9.28-8.27Zm-7.23,12.66v-4.39c0-4.73,3.59-5.82,7.23-5.82s7.2,1.09,7.2,5.82v4.39H2.44Z"/><rect class="cls-2" x=".36" y="107.49" width="18.59" height="2.34"/><path class="cls-2" d="M19.32,95.79c0-5.46-4.08-9.1-9.67-9.1S0,90.33,0,95.79s4.06,9.1,9.65,9.1,9.67-3.64,9.67-9.1Zm-17.24,0c0-4.68,3.56-6.66,7.57-6.66s7.59,1.98,7.59,6.66-3.59,6.66-7.59,6.66-7.57-1.98-7.57-6.66Z"/><polygon class="cls-2" points="3.67 68.2 3.67 68.15 18.95 62.53 18.95 60.45 3.67 54.83 3.67 54.78 18.95 54.78 18.95 52.44 .36 52.44 .36 55.64 15.81 61.46 15.81 61.52 .36 67.34 .36 70.54 18.95 70.54 18.95 68.2 3.67 68.2"/><path class="cls-2" d="M.36,43.78l18.59,6.86v-2.42l-4.65-1.64v-8.19l4.65-1.64v-2.52L.36,41.16v2.63Zm11.86,2.03l-9.7-3.3v-.05l9.7-3.3v6.66Z"/><polygon class="cls-2" points="15.63 20.25 15.63 20.31 .36 29.59 .36 32.45 18.95 32.45 18.95 30.11 3.69 30.11 3.69 30.06 18.95 20.77 18.95 17.91 .36 17.91 .36 20.25 15.63 20.25"/><polygon class="cls-2" points=".36 2.34 15.63 2.34 15.63 2.39 .36 11.67 .36 14.53 18.95 14.53 18.95 12.19 3.69 12.19 3.69 12.14 18.95 2.86 18.95 0 .36 0 .36 2.34"/><circle class="cls-2" cx="9.45" cy="81.65" r="1.5"/><circle class="cls-2" cx="17.32" cy="81.65" r="1.5"/><path class="cls-2" d="M44.97,176.55h.38v-4.5c0-2.63-.95-5.02-3.85-5.02-1.96,0-3.39,1.53-3.53,3.64h-.05c-.22-1.67-1.42-2.93-3.4-2.93-2.43,0-3.56,1.75-3.56,4.14v4.68h.38c0-1.71,.25-1.87,1.35-1.87h10.95c1.1,0,1.35,.16,1.35,1.87Zm-12.84-2.97c-.27,0-.43-.13-.49-.4-.07-.38-.09-.79-.09-1.21,0-1.53,.83-3.11,2.97-3.11s3.13,1.58,3.13,3.11c0,.54,0,1.08-.07,1.6h-5.46Zm6.21,0c-.07-.52-.07-1.04-.07-1.6,0-1.37,.67-3.78,3.24-3.78s3.22,2.07,3.22,3.93c0,.95-.11,1.46-.58,1.46h-5.82Z"/><path class="cls-2" d="M36.55,162.67c0-.2,.07-.29,.25-.47,.18-.16,.29-.29,.29-.54,0-.31-.29-.65-.81-.65-.41,0-.7,.31-.7,.83,0,.88,.79,1.66,1.8,2.16v.05h-1.6l-.2,.22,.79,1.94,.34-.14c-.41-1.04-.22-1.04,.92-1.04h6c1.12,0,1.35,.14,1.35,1.17h.38v-3.93h-.4c0,1.58-.22,1.78-1.37,1.78h-5.28c-1.21-.49-1.76-.97-1.76-1.39Z"/><path class="cls-2" d="M45.64,154.84c0-.97-.97-1.28-2.2-1.3v.38c1.21,.02,1.57,.31,1.57,.68,0,.29-.22,.52-1.21,.52h-5.53c-1.91,0-2.72,.99-2.72,2.34,0,1.51,1.01,2.65,2.27,2.65,.58,0,.99-.25,.99-.74,0-.4-.25-.61-.63-.61s-.54,.25-.97,.25c-.67,0-1.04-.59-1.04-1.37,0-.95,.56-1.53,2.12-1.53h1.03c.95,1.98,2,4.41,4.23,4.41,1.13,0,2.09-.65,2.09-1.84s-.92-2.09-2.7-2.57h.72c1.33,0,1.98-.47,1.98-1.28Zm-.92,3.55c0,.74-.61,1.1-1.42,1.1-1.71,0-2.59-1.75-3.46-3.37h2.14c1.96,.56,2.74,1.46,2.74,2.27Z"/><path class="cls-2" d="M35.57,148.27c0,1.08,.7,1.8,1.71,2.57v.05h-1.51l-.2,.23,.79,1.94,.36-.14c-.43-1.06-.23-1.04,.9-1.04h6c1.12,0,1.35,.14,1.35,1.17h.38v-3.29h-.38c0,1.01-.23,1.13-1.35,1.13h-5.73c-.83-.72-1.42-1.4-1.42-2.27,0-.74,.5-1.19,1.58-1.19h5.56c1.12,0,1.35,.13,1.35,1.13h.38v-3.28h-.38c0,1.03-.23,1.15-1.35,1.15h-5.62c-1.46,0-2.43,.54-2.43,1.82Z"/><path class="cls-2" d="M45.64,139.34l-.86-1.98-.34,.16c.47,1.08,.27,1.06-.86,1.06h-12.8l-.2,.18,.92,2.03,.34-.16c-.49-1.08-.29-1.04,.83-1.04h3.91v.02c-.63,.4-.99,1.04-.99,1.93,0,1.94,2.43,2.99,5.29,2.99,2.68,0,4.77-.9,4.77-2.61,0-1.08-.67-1.82-1.66-2.25v-.07h1.44l.22-.25Zm-.9,2.23c0,1.3-1.84,1.87-4.25,1.87-2.11,0-4.21-.54-4.21-2.03,0-1.19,1.35-1.82,3.29-1.82h3.58c.81,.45,1.58,1.01,1.58,1.98Z"/><path class="cls-2" d="M43.23,131.4c-1.24,0-2,.7-3.37,2.3-.99,1.17-1.46,1.71-2.29,1.71s-1.39-.56-1.39-1.33c0-1.21,1.13-1.89,2.54-2.03v-.36l-3.02,.04v.36l.38,.07c.22,.04,.31,.22,.09,.45-.25,.29-.59,.79-.59,1.55,0,1.28,.92,2.16,2.2,2.16,.97,0,1.58-.5,2.83-1.94,1.44-1.64,1.82-2.05,2.74-2.05,1.01,0,1.69,.47,1.69,1.37,0,1.15-1.08,2.16-3.35,2.4v.34l3.78-.09v-.36l-.36-.13c-.22-.09-.27-.23-.09-.47,.27-.34,.63-.97,.63-1.76,0-1.19-.81-2.21-2.41-2.21Z"/><path class="cls-2" d="M45.64,120.93c0-.97-.97-1.28-2.2-1.3v.38c1.21,.02,1.57,.31,1.57,.68,0,.29-.22,.52-1.21,.52h-5.53c-1.91,0-2.72,.99-2.72,2.34,0,1.51,1.01,2.65,2.27,2.65,.58,0,.99-.25,.99-.74,0-.4-.25-.61-.63-.61s-.54,.25-.97,.25c-.67,0-1.04-.59-1.04-1.37,0-.95,.56-1.53,2.12-1.53h1.03c.95,1.98,2,4.41,4.23,4.41,1.13,0,2.09-.65,2.09-1.84s-.92-2.09-2.7-2.57h.72c1.33,0,1.98-.47,1.98-1.28Zm-.92,3.55c0,.74-.61,1.1-1.42,1.1-1.71,0-2.59-1.75-3.46-3.37h2.14c1.96,.56,2.74,1.46,2.74,2.27Z"/><path class="cls-2" d="M38,112.54c-1.46,0-2.43,.54-2.43,1.82,0,1.08,.7,1.8,1.71,2.57v.05h-1.51l-.2,.23,.79,1.94,.36-.14c-.43-1.06-.23-1.04,.9-1.04h6c1.12,0,1.35,.14,1.35,1.17h.38v-3.29h-.38c0,1.01-.23,1.13-1.35,1.13h-5.73c-.83-.72-1.42-1.4-1.42-2.27,0-.74,.5-1.19,1.58-1.19h5.56c1.12,0,1.35,.13,1.35,1.13h.38v-3.28h-.38c0,1.03-.23,1.15-1.35,1.15h-5.62Z"/><path class="cls-2" d="M44.43,103.61c.47,1.08,.27,1.06-.86,1.06h-12.8l-.2,.18,.92,2.03,.34-.16c-.49-1.08-.29-1.04,.83-1.04h3.91v.02c-.63,.4-.99,1.04-.99,1.93,0,1.94,2.43,2.99,5.29,2.99,2.68,0,4.77-.9,4.77-2.61,0-1.08-.67-1.82-1.66-2.25v-.07h1.44l.22-.25-.86-1.98-.34,.16Zm-1.28,2.07c.81,.45,1.58,1.01,1.58,1.98,0,1.3-1.84,1.87-4.25,1.87-2.11,0-4.21-.54-4.21-2.03,0-1.19,1.35-1.82,3.29-1.82h3.58Z"/><path class="cls-2" d="M36.26,87.86h-.38v2.83h.38c0-1.21,.2-1.21,1.28-.9l6.05,1.66v.05l-6.03,1.39c-1.08,.25-1.3,.25-1.3-.76h-.38v3.01h.38c0-.68,.22-.92,1.3-1.19l.5-.13,5.53,1.46v.05l-6.05,1.66c-1.08,.29-1.28,.34-1.28-.56h-.38v3.01h.38c0-.81,.2-1.06,1.28-1.37l7.98-2.23v-.63l-6.32-1.66,6.32-1.57v-.58l-7.98-2.23c-1.08-.29-1.28-.56-1.28-1.31Z"/><path class="cls-2" d="M40.76,87.94c2.84,0,4.88-1.08,4.88-2.94,0-1.44-1.22-2.61-4.09-2.9v.38c2.47,.41,3.17,1.37,3.17,2.2,0,1.42-1.94,2.21-4.3,2.21h-.34v-4.68c-2.68,0-4.5,.99-4.5,2.72,0,1.89,2.32,3.01,5.19,3.01Zm-4.57-3.03c0-1.21,1.64-1.64,3.28-1.64v3.58c-1.76-.16-3.28-.77-3.28-1.94Z"/><path class="cls-2" d="M32.66,80.36h11.79c.77-.72,1.17-1.76,1.17-2.68,0-2.12-2.12-3.33-5.37-3.33-2.92,0-4.68,.99-4.68,2.52,0,.95,.63,1.78,1.6,2.41v.07h-6.41l-.2,.18,.9,2,.34-.16c-.47-1.03-.27-1.01,.85-1.01Zm5.26-1.01c-.83-.52-1.44-1.21-1.44-1.98,0-1.17,1.39-1.94,4-1.94s4.48,.81,4.48,2.21c0,.81-.56,1.42-.97,1.71h-6.07Z"/><path class="cls-2" d="M45.1,72.51c-.22-.09-.27-.23-.09-.47,.27-.34,.63-.97,.63-1.76,0-1.19-.81-2.21-2.41-2.21-1.24,0-2,.7-3.37,2.3-.99,1.17-1.46,1.71-2.29,1.71s-1.39-.56-1.39-1.33c0-1.21,1.13-1.89,2.54-2.03v-.36l-3.02,.04v.36l.38,.07c.22,.04,.31,.22,.09,.45-.25,.29-.59,.79-.59,1.55,0,1.28,.92,2.16,2.2,2.16,.97,0,1.58-.5,2.83-1.94,1.44-1.64,1.82-2.05,2.74-2.05,1.01,0,1.69,.47,1.69,1.37,0,1.15-1.08,2.16-3.35,2.4v.34l3.78-.09v-.36l-.36-.13Z"/><path class="cls-2" d="M32.58,66.39c.47,0,.85-.38,.85-.88s-.38-.86-.85-.86-.85,.38-.85,.86,.36,.88,.85,.88Z"/><path class="cls-2" d="M43.62,64.84h-7.85l-.2,.22,.23,.61,.52,1.31,.36-.14c-.4-1.01-.2-1.01,.94-1.01h6c1.12,0,1.35,.14,1.35,1.19h.38v-3.37h-.38c0,1.06-.23,1.19-1.35,1.19Z"/><path class="cls-2" d="M41.52,58v.41c2.25,0,3.28,.43,3.28,1.3,0,.99-1.24,1.08-2.99,1.08h-5.31v-2.18h-.61v2.2h-2.54v.45c1.55,.07,2.61,.56,2.63,1.84h.52v-1.3h5.94c2.4,0,3.21-.59,3.21-1.82,0-1.55-1.49-1.98-4.12-1.98Z"/><path class="cls-2" d="M40.08,51.3c-2.68,0-4.5,.99-4.5,2.72,0,1.89,2.32,3.01,5.19,3.01s4.88-1.08,4.88-2.93c0-1.44-1.22-2.61-4.09-2.9v.38c2.47,.41,3.17,1.37,3.17,2.2,0,1.42-1.94,2.21-4.3,2.21h-.34v-4.68Zm-3.89,2.7c0-1.21,1.64-1.64,3.28-1.64v3.58c-1.76-.16-3.28-.77-3.28-1.94Z"/><path class="cls-2" d="M39.86,47.18c-.99,1.17-1.46,1.71-2.29,1.71s-1.39-.56-1.39-1.33c0-1.21,1.13-1.89,2.54-2.03v-.36l-3.02,.04v.36l.38,.07c.22,.04,.31,.22,.09,.45-.25,.29-.59,.79-.59,1.55,0,1.28,.92,2.16,2.2,2.16,.97,0,1.58-.5,2.83-1.94,1.44-1.64,1.82-2.05,2.74-2.05,1.01,0,1.69,.47,1.69,1.37,0,1.15-1.08,2.16-3.35,2.4v.34l3.78-.09v-.36l-.36-.13c-.22-.09-.27-.23-.09-.47,.27-.34,.63-.97,.63-1.76,0-1.19-.81-2.21-2.41-2.21-1.24,0-2,.7-3.37,2.3Z"/><path class="cls-2" d="M51.13,172.82c0-.36,.14-.54,.59-.85,.36-.25,.65-.43,.65-.79,0-.4-.29-.61-.61-.61-.63,0-1.28,.88-1.28,2,0,1.44,1.03,2.68,3.69,2.68h1.75l.13,1.17h.45v-1.17h7.13c1.12,0,1.35,.14,1.35,1.28h.38v-4.02h-.38c0,1.55-.23,1.75-1.35,1.75h-7.13v-1.94h-.61v1.94h-1.82c-2.21,0-2.93-.61-2.93-1.44Z"/><path class="cls-2" d="M65.64,168.37c0-2.14-2.29-3.37-5.08-3.37s-4.99,1.39-4.99,3.37c0,2.16,2.29,3.38,5.08,3.38s4.99-1.39,4.99-3.38Zm-9.43,.23c0-1.71,2.68-2.56,5.13-2.56,1.82,0,3.67,.63,3.67,2.09,0,1.73-2.66,2.57-5.11,2.57-1.84,0-3.69-.63-3.69-2.11Z"/><path class="cls-2" d="M56.55,160.49c0-.2,.07-.29,.25-.47,.18-.16,.29-.29,.29-.54,0-.31-.29-.65-.81-.65-.41,0-.7,.31-.7,.83,0,.88,.79,1.66,1.8,2.16v.05h-1.6l-.2,.22,.79,1.94,.34-.14c-.41-1.04-.22-1.04,.92-1.04h6c1.12,0,1.35,.14,1.35,1.17h.38v-3.93h-.4c0,1.58-.22,1.78-1.37,1.78h-5.28c-1.21-.49-1.76-.97-1.76-1.39Z"/><path class="cls-2" d="M63.98,149.4v-.07h1.44l.22-.25-.86-1.98-.34,.16c.47,1.08,.27,1.06-.86,1.06h-12.8l-.2,.18,.92,2.03,.34-.16c-.49-1.08-.29-1.04,.83-1.04h3.91v.02c-.63,.4-.99,1.04-.99,1.93,0,1.94,2.43,2.99,5.29,2.99,2.68,0,4.77-.9,4.77-2.61,0-1.08-.67-1.82-1.66-2.25Zm.76,1.91c0,1.3-1.84,1.87-4.25,1.87-2.11,0-4.21-.54-4.21-2.03,0-1.19,1.35-1.82,3.29-1.82h3.58c.81,.45,1.58,1.01,1.58,1.98Z"/><path class="cls-2" d="M61.55,140.87c2.47,.41,3.17,1.37,3.17,2.2,0,1.42-1.94,2.21-4.3,2.21h-.34v-4.68c-2.68,0-4.5,.99-4.5,2.72,0,1.89,2.32,3.01,5.19,3.01s4.88-1.08,4.88-2.94c0-1.44-1.22-2.61-4.09-2.9v.38Zm-5.37,2.43c0-1.21,1.64-1.64,3.28-1.64v3.58c-1.76-.16-3.28-.77-3.28-1.94Z"/><path class="cls-2" d="M65.03,136.46c0,1.15-1.08,2.16-3.35,2.4v.34l3.78-.09v-.36l-.36-.13c-.22-.09-.27-.23-.09-.47,.27-.34,.63-.97,.63-1.76,0-1.19-.81-2.21-2.41-2.21-1.24,0-2,.7-3.37,2.3-.99,1.17-1.46,1.71-2.29,1.71s-1.39-.56-1.39-1.33c0-1.21,1.13-1.89,2.54-2.03v-.36l-3.02,.04v.36l.38,.07c.22,.04,.31,.22,.09,.45-.25,.29-.59,.79-.59,1.55,0,1.28,.92,2.16,2.2,2.16,.97,0,1.58-.5,2.83-1.94,1.44-1.64,1.82-2.05,2.74-2.05,1.01,0,1.69,.47,1.69,1.37Z"/><path class="cls-2" d="M64.97,129.76c0,1.06-.23,1.19-1.35,1.19h-7.85l-.2,.22,.23,.61,.52,1.31,.36-.14c-.4-1.01-.2-1.01,.94-1.01h6c1.12,0,1.35,.14,1.35,1.19h.38v-3.37h-.38Z"/><path class="cls-2" d="M52.58,132.5c.47,0,.85-.38,.85-.88s-.38-.86-.85-.86-.85,.38-.85,.86,.36,.88,.85,.88Z"/><path class="cls-2" d="M64.23,124v1.85c0,1.75-.47,1.82-.95,1.82-.41,0-.74-.27-1.12-.7,.23-.4,.38-.88,.38-1.42,0-1.73-1.44-2.88-3.48-2.88-1.15,0-2.11,.38-2.72,1.01-.09-.49,.05-.92,.05-1.53,0-.4-.18-.59-.45-.59-.23,0-.41,.09-.41,.5,0,.58,.18,1.26,.52,1.94-.31,.43-.47,.95-.47,1.55,0,1.75,1.46,2.9,3.49,2.9,1.22,0,2.21-.41,2.83-1.13,.52,.68,1.1,1.17,1.8,1.17,.58,0,1.06-.25,1.31-.95,.56,.95,1.24,1.8,2.4,1.8,1.51,0,2.18-1.53,2.18-3.26,0-2.75-1.8-4.68-3.6-4.68-1.33,0-1.76,.79-1.76,2.61Zm-5.56,3.4c-1.28,0-2.5-.47-2.5-1.66,0-1.42,1.85-2.03,3.4-2.03,1.39,0,2.4,.52,2.4,1.64,0,1.49-1.82,2.05-3.3,2.05Zm10.08-1.57c0,1.8-.77,2.63-1.64,2.63-.76,0-1.42-.68-1.94-1.49,.05-.29,.07-.63,.07-1.03v-1.93c0-1.39,.2-1.93,1.06-1.93,1.17,0,2.45,1.42,2.45,3.75Z"/><path class="cls-2" d="M63.62,114.39h-5.62c-1.46,0-2.43,.54-2.43,1.82,0,1.08,.7,1.8,1.71,2.57v.05h-1.51l-.2,.23,.79,1.94,.36-.14c-.43-1.06-.23-1.04,.9-1.04h6c1.12,0,1.35,.14,1.35,1.17h.38v-3.29h-.38c0,1.01-.23,1.13-1.35,1.13h-5.73c-.83-.72-1.42-1.4-1.42-2.27,0-.74,.5-1.19,1.58-1.19h5.56c1.12,0,1.35,.13,1.35,1.13h.38v-3.28h-.38c0,1.03-.23,1.15-1.35,1.15Z"/><rect class="cls-2" x="60.04" y="106.27" width=".9" height="5.67"/><path class="cls-2" d="M63.57,98.79h-12.8l-.2,.18,.92,2.03,.34-.16c-.49-1.08-.29-1.04,.83-1.04h3.91v.02c-.63,.4-.99,1.04-.99,1.93,0,1.94,2.43,2.99,5.29,2.99,2.68,0,4.77-.9,4.77-2.61,0-1.08-.67-1.82-1.66-2.25v-.07h1.44l.22-.25-.86-1.98-.34,.16c.47,1.08,.27,1.06-.86,1.06Zm-.41,1.01c.81,.45,1.58,1.01,1.58,1.98,0,1.3-1.84,1.87-4.25,1.87-2.11,0-4.21-.54-4.21-2.03,0-1.19,1.35-1.82,3.29-1.82h3.58Z"/><path class="cls-2" d="M55.57,92.34c0,.88,.79,1.66,1.8,2.16v.05h-1.6l-.2,.22,.79,1.94,.34-.14c-.41-1.04-.22-1.04,.92-1.04h6c1.12,0,1.35,.14,1.35,1.17h.38v-3.93h-.4c0,1.58-.22,1.78-1.37,1.78h-5.28c-1.21-.49-1.76-.97-1.76-1.39,0-.2,.07-.29,.25-.47,.18-.16,.29-.29,.29-.54,0-.31-.29-.65-.81-.65-.41,0-.7,.31-.7,.83Z"/><path class="cls-2" d="M63.62,88.6h-7.85l-.2,.22,.23,.61,.52,1.31,.36-.14c-.4-1.01-.2-1.01,.94-1.01h6c1.12,0,1.35,.14,1.35,1.19h.38v-3.37h-.38c0,1.06-.23,1.19-1.35,1.19Z"/><path class="cls-2" d="M52.58,90.15c.47,0,.85-.38,.85-.88s-.38-.86-.85-.86-.85,.38-.85,.86,.36,.88,.85,.88Z"/><path class="cls-2" d="M55.88,79.54v2.97h.38c0-1.22,.2-1.21,1.28-.9l6.03,1.78v.09l-6.03,1.71c-1.08,.31-1.28,.32-1.28-.9h-.38v3.38h.38c0-.79,.2-1.06,1.28-1.39l7.98-2.36v-.56l-7.98-2.38c-1.08-.32-1.28-.61-1.28-1.46h-.38Z"/><path class="cls-2" d="M64.72,76.34c0,1.42-1.94,2.21-4.3,2.21h-.34v-4.68c-2.68,0-4.5,.99-4.5,2.72,0,1.89,2.32,3.01,5.19,3.01s4.88-1.08,4.88-2.93c0-1.44-1.22-2.61-4.09-2.9v.38c2.47,.41,3.17,1.37,3.17,2.2Zm-8.53,.23c0-1.21,1.64-1.64,3.28-1.64v3.58c-1.76-.16-3.28-.77-3.28-1.94Z"/><path class="cls-2" d="M63.62,66.13h-5.62c-1.46,0-2.43,.54-2.43,1.82,0,1.08,.7,1.8,1.71,2.57v.05h-1.51l-.2,.23,.79,1.94,.36-.14c-.43-1.06-.23-1.04,.9-1.04h6c1.12,0,1.35,.14,1.35,1.17h.38v-3.29h-.38c0,1.01-.23,1.13-1.35,1.13h-5.73c-.83-.72-1.42-1.4-1.42-2.27,0-.74,.5-1.19,1.58-1.19h5.56c1.12,0,1.35,.13,1.35,1.13h.38v-3.28h-.38c0,1.03-.23,1.15-1.35,1.15Z"/><path class="cls-2" d="M52.37,55.21c0-.4-.29-.61-.61-.61-.63,0-1.28,.88-1.28,2,0,1.44,1.03,2.68,3.69,2.68h1.75l.13,1.17h.45v-1.17h7.13c1.12,0,1.35,.14,1.35,1.28h.38v-4.02h-.38c0,1.55-.23,1.75-1.35,1.75h-7.13v-1.94h-.61v1.94h-1.82c-2.21,0-2.93-.61-2.93-1.44,0-.36,.14-.54,.59-.85,.36-.25,.65-.43,.65-.79Z"/><path class="cls-2" d="M55.57,52.4c0,2.16,2.29,3.38,5.08,3.38s4.99-1.39,4.99-3.38c0-2.14-2.29-3.37-5.08-3.37s-4.99,1.39-4.99,3.37Zm9.43-.23c0,1.73-2.66,2.57-5.11,2.57-1.84,0-3.69-.63-3.69-2.11,0-1.71,2.68-2.56,5.13-2.56,1.82,0,3.67,.63,3.67,2.09Z"/><path class="cls-2" d="M63.62,46.07h-12.86l-.2,.2,.27,.63,.61,1.37,.36-.16c-.49-1.04-.29-1.03,.83-1.03h10.98c1.12,0,1.35,.13,1.35,1.19h.38v-3.37h-.38c0,1.04-.23,1.17-1.35,1.17Z"/><path class="cls-2" d="M63.86,38.04l-4.27,2.48-2.36-1.87c-.88-.68-.97-1.17-.97-1.93h-.38v3.42h.38c0-.94,.23-1.3,1.03-.65l2.59,2.02,3.98-2.3c.97-.56,1.12-.7,1.12,.52h.38v-3.37h-.38c0,.72-.14,1.12-1.12,1.67Z"/><path class="cls-2" d="M63.62,41.91h-12.86l-.2,.2,.27,.63,.61,1.37,.36-.16c-.49-1.04-.29-1.03,.83-1.03h10.98c1.12,0,1.35,.13,1.35,1.19h.38v-3.33h-.38c0,1.03-.23,1.13-1.35,1.13Z"/><path class="cls-2" d="M59.86,32.96c-.99,1.17-1.46,1.71-2.29,1.71s-1.39-.56-1.39-1.33c0-1.21,1.13-1.89,2.54-2.03v-.36l-3.02,.04v.36l.38,.07c.22,.04,.31,.22,.09,.45-.25,.29-.59,.79-.59,1.55,0,1.28,.92,2.16,2.2,2.16,.97,0,1.58-.5,2.83-1.94,1.44-1.64,1.82-2.05,2.74-2.05,1.01,0,1.69,.47,1.69,1.37,0,1.15-1.08,2.16-3.35,2.4v.34l3.78-.09v-.36l-.36-.13c-.22-.09-.27-.23-.09-.47,.27-.34,.63-.97,.63-1.76,0-1.19-.81-2.21-2.41-2.21-1.24,0-2,.7-3.37,2.3Z"/></svg>